# xmcd
#
# Track frame offsets: 
#        150
#        17797
#        33077
#        52192
#        70235
#        86765
#        105782
#        122635
#        137352
#        155905
#        173685
#        191635
#        208660
#        226752
#        244357
#        264605
#        287785
#        307735
#        331985
#
# Disc length: 4692 seconds
#
# Revision: 0
# Processed by: cddbd v1.5.2PL0 Copyright (c) Steve Scherf et al.
# Submitted via: ExactAudioCopyFreeDBPlugin 1.0
#
DISCID=06125213
DTITLE=美川憲一 - 全曲集～東京ホテル／さそり座の女 [CRCN-40702]
DYEAR=2000
DGENRE=歌謡曲
TTITLE0=柳ヶ瀬ブルース
TTITLE1=ネオン化粧
TTITLE2=新潟ブルース
TTITLE3=釧路の夜
TTITLE4=みれん町
TTITLE5=おんなの朝
TTITLE6=お金をちょうだい
TTITLE7=さそり座の女
TTITLE8=雨の花
TTITLE9=花
TTITLE10=おだまり
TTITLE11=幸せになりたい
TTITLE12=北国夜曲
TTITLE13=慕情
TTITLE14=別れの旅路
TTITLE15=地上の愛
TTITLE16=女の翼
TTITLE17=永遠にバラの時を
TTITLE18=東京ホテル
EXTD=
EXTT0=
EXTT1=
EXTT2=
EXTT3=
EXTT4=
EXTT5=
EXTT6=
EXTT7=
EXTT8=
EXTT9=
EXTT10=
EXTT11=
EXTT12=
EXTT13=
EXTT14=
EXTT15=
EXTT16=
EXTT17=
EXTT18=
PLAYORDER=
